# xmcd
#
# Track frame offsets: 
#        150
#        20720
#        35812
#        53448
#        73023
#        89379
#        105227
#        123429
#        139919
#        156889
#        173314
#        188854
#        205683
#        231044
#
# Disc length: 3289 seconds
#
# Revision: 2
# Processed by: cddbd v1.5.2PL0 Copyright (c) Steve Scherf et al.
# Submitted via: ExactAudioCopy v0.95b4
#
DISCID=b40cd70e
DTITLE=Nate James - Set The Tone
DYEAR=2006
DGENRE=Pop
TTITLE0=Said I'd Show You
TTITLE1=The Message
TTITLE2=Get This Right
TTITLE3=Pretended
TTITLE4=Universal
TTITLE5=Set The Tone
TTITLE6=Funky Love
TTITLE7=Justify Me
TTITLE8=I Don't Wanna Fight
TTITLE9=I'll Decline
TTITLE10=Impossible
TTITLE11=Can't Stop
TTITLE12=Shake Out
TTITLE13=Still On My Own
EXTD=
EXTT0=
EXTT1=
EXTT2=
EXTT3=
EXTT4=
EXTT5=
EXTT6=
EXTT7=
EXTT8=
EXTT9=
EXTT10=
EXTT11=
EXTT12=
EXTT13=
PLAYORDER=
